<svg xmlns="http://www.w3.org/2000/svg" viewBox="0 0 200 200" role="img" aria-label="Vietnamese People &amp; Enterprise sigil">
  <defs>
    <linearGradient id="vg" x1="0" y1="0" x2="1" y2="1">
      <stop offset="0" stop-color="#C7E1CE"/><stop offset="1" stop-color="#2F7D62"/>
    </linearGradient>
    <pattern id="weave" width="12" height="12" patternUnits="userSpaceOnUse">
      <path d="M0 6 Q3 0 6 6 T12 6" fill="none" stroke="#2F7D62" stroke-width=".7" opacity=".45"/>
    </pattern>
  </defs>
  <circle cx="100" cy="100" r="94" fill="#0D1815" stroke="url(#vg)" stroke-width="1.2"/>
  <circle cx="100" cy="100" r="80" fill="url(#weave)"/>
  <!-- rising bamboo culms -->
  <g stroke="#68A98F" stroke-width="2.2" fill="none" stroke-linecap="round">
    <line x1="70" y1="150" x2="70" y2="70"/>
    <line x1="100" y1="158" x2="100" y2="52"/>
    <line x1="130" y1="150" x2="130" y2="72"/>
  </g>
  <g stroke="#D8B46D" stroke-width=".8" fill="none">
    <line x1="66" y1="100" x2="74" y2="100"/>
    <line x1="96" y1="90"  x2="104" y2="90"/>
    <line x1="126" y1="106" x2="134" y2="106"/>
    <line x1="66" y1="126"  x2="74" y2="126"/>
    <line x1="96" y1="120"  x2="104" y2="120"/>
    <line x1="126" y1="130" x2="134" y2="130"/>
  </g>
  <path d="M100 52 C 86 44 82 34 96 30 C 88 40 100 44 100 52 Z" fill="#B5D6C6"/>
  <text x="100" y="182" text-anchor="middle" font-family="IBM Plex Mono, monospace" font-size="9" letter-spacing="3" fill="#C7E1CE">NHÂN DÂN · ENTERPRISE VN</text>
</svg>
